<svg xmlns="http://www.w3.org/2000/svg" viewBox="0 0 512 512" role="img" aria-label="Portal TACS">
  <defs>
    <linearGradient id="bg" x1="0" y1="0" x2="1" y2="1">
      <stop offset="0" stop-color="#0b5d80"/>
      <stop offset="0.52" stop-color="#073a55"/>
      <stop offset="1" stop-color="#03263d"/>
    </linearGradient>
    <linearGradient id="mint" x1="0" y1="0" x2="1" y2="1">
      <stop offset="0" stop-color="#62e6ca"/>
      <stop offset="1" stop-color="#14b7b7"/>
    </linearGradient>
    <linearGradient id="green" x1="0" y1="0" x2="1" y2="1">
      <stop offset="0" stop-color="#69efbc"/>
      <stop offset="1" stop-color="#20c987"/>
    </linearGradient>
    <filter id="shadow" x="-25%" y="-25%" width="150%" height="150%">
      <feDropShadow dx="0" dy="10" stdDeviation="10" flood-color="#001824" flood-opacity=".30"/>
    </filter>
  </defs>
  <rect x="8" y="8" width="496" height="496" rx="88" fill="url(#bg)" stroke="#53cfee" stroke-width="4"/>
  <g filter="url(#shadow)">
    <path d="M82 230V180L256 69l174 111v128" fill="none" stroke="#fff" stroke-width="28" stroke-linecap="round" stroke-linejoin="round"/>
    <path d="M119 210v135M393 210v130" fill="none" stroke="#fff" stroke-width="25" stroke-linecap="round"/>
    <g fill="url(#mint)">
      <rect x="226" y="157" width="27" height="27" rx="5"/><rect x="260" y="157" width="27" height="27" rx="5"/>
      <rect x="226" y="191" width="27" height="27" rx="5"/><rect x="260" y="191" width="27" height="27" rx="5"/>
    </g>
    <g>
      <circle cx="166" cy="303" r="29" fill="#fff"/>
      <circle cx="251" cy="286" r="34" fill="#fff"/>
      <circle cx="326" cy="307" r="27" fill="#fff"/>
      <path d="M126 374c0-39 17-58 40-58 26 0 43 19 43 58v40h-83z" fill="#f4fbfd"/>
      <path d="M202 381c0-51 21-76 50-76 32 0 54 25 54 76v42H202z" fill="url(#mint)"/>
      <path d="M293 376c0-39 15-58 34-58 24 0 39 19 39 58v38h-73z" fill="url(#mint)" opacity=".90"/>
    </g>
    <g transform="translate(322 260)">
      <path d="M0 0h79l35 35v112H0z" fill="#f8fcfd" stroke="#d4e7ed" stroke-width="5"/>
      <path d="M79 0v35h35" fill="none" stroke="#d4e7ed" stroke-width="6"/>
      <path d="M22 55h55M22 82h55M22 109h38" stroke="#0b5d80" stroke-width="9" stroke-linecap="round"/>
    </g>
    <circle cx="399" cy="398" r="48" fill="url(#green)" stroke="#86f4c9" stroke-width="5"/>
    <path d="m377 398 14 14 30-34" fill="none" stroke="#06324a" stroke-width="12" stroke-linecap="round" stroke-linejoin="round"/>
    <path d="M72 440c96-42 272-43 372 0-112-18-261-18-372 0z" fill="url(#green)"/>
  </g>
</svg>
